<svg width="31" height="31" viewBox="0 0 31 31" fill="none" xmlns="http://www.w3.org/2000/svg">
<path d="M29.6641 31L17.8151 19.1525C16.869 19.9584 15.781 20.5822 14.5511 21.0236C13.3211 21.4651 12.0849 21.6858 10.8423 21.6858C7.81228 21.6858 5.24772 20.637 3.14863 18.5395C1.04954 16.4419 0 13.8783 0 10.8486C0 7.8189 1.04828 5.25402 3.14484 3.15392C5.24141 1.05383 7.80472 0.00252717 10.8348 4.53711e-06C13.8648 -0.0025181 16.4307 1.0469 18.5323 3.14825C20.6339 5.2496 21.6847 7.81449 21.6847 10.8429C21.6847 12.1572 21.4519 13.4292 20.9864 14.659C20.521 15.8888 19.9092 16.9407 19.151 17.8148L31 29.6605L29.6641 31ZM10.8442 19.7919C13.3546 19.7919 15.4738 18.9279 17.202 17.1999C18.9303 15.4719 19.7944 13.3523 19.7944 10.841C19.7944 8.32973 18.9303 6.21072 17.202 4.48398C15.4738 2.75724 13.3546 1.89324 10.8442 1.89198C8.3339 1.89072 6.214 2.75472 4.48453 4.48398C2.75505 6.21325 1.89094 8.33226 1.89221 10.841C1.89347 13.3498 2.75757 15.4688 4.48453 17.198C6.21148 18.9273 8.33075 19.7913 10.8423 19.7901" fill="white"/>
</svg>
